<svg width="15" height="13" viewBox="0 0 15 13" fill="none" xmlns="http://www.w3.org/2000/svg">
<path d="M15.0002 1.84931C14.4481 2.09394 13.8558 2.25985 13.2334 2.33391C13.8689 1.95335 14.3553 1.34972 14.5859 0.632666C13.9898 0.985092 13.3318 1.241 12.6306 1.37972C12.0692 0.780778 11.2706 0.407715 10.3848 0.407715C8.68544 0.407715 7.30757 1.78558 7.30757 3.48401C7.30757 3.72489 7.33475 3.96016 7.38725 4.18514C4.83024 4.05671 2.56287 2.83164 1.04534 0.970092C0.780073 1.42377 0.629166 1.9524 0.629166 2.51668C0.629166 3.58431 1.17282 4.52632 1.99767 5.07744C1.49338 5.06058 1.01909 4.92186 0.603872 4.69127V4.7297C0.603872 6.22004 1.66493 7.46386 3.07184 7.74695C2.81407 7.81631 2.54225 7.85475 2.26105 7.85475C2.06235 7.85475 1.8702 7.83506 1.68179 7.79756C2.07358 9.02077 3.20963 9.91028 4.55564 9.93467C3.50301 10.7595 2.17576 11.2497 0.734166 11.2497C0.485783 11.2497 0.241127 11.2347 0.000244141 11.2076C1.36218 12.0821 2.97907 12.592 4.71686 12.592C10.3774 12.592 13.4715 7.9035 13.4715 3.83739L13.4612 3.43904C14.0657 3.00784 14.5887 2.46607 15.0002 1.84931Z" fill="black"/>
</svg>
